<?xml version="1.0" encoding="utf-8"?>
<!-- Generator: Adobe Illustrator 16.2.1, SVG Export Plug-In . SVG Version: 6.00 Build 0)  -->
<!DOCTYPE svg PUBLIC "-//W3C//DTD SVG 1.1//EN" "http://www.w3.org/Graphics/SVG/1.1/DTD/svg11.dtd">
<svg version="1.1" id="Layer_1" xmlns="http://www.w3.org/2000/svg" xmlns:xlink="http://www.w3.org/1999/xlink" x="0px" y="0px"
	 width="516.667px" height="131.333px" viewBox="0 0 516.667 131.333" enable-background="new 0 0 516.667 131.333"
	 xml:space="preserve">
<g>
	<g>
		<g>
			<path fill="#FFFFFF" d="M514.333,57.649c0,4.471-3.514,8.018-7.98,8.018c-4.461,0-8.02-3.547-8.02-8.018
				c0-4.479,3.559-7.982,8.076-7.982C510.82,49.667,514.333,53.169,514.333,57.649z M500.322,57.649
				c0,3.547,2.621,6.369,6.088,6.369c3.363,0.053,5.932-2.822,5.932-6.326c0-3.545-2.568-6.426-6.035-6.426
				C502.943,51.266,500.322,54.147,500.322,57.649z M505.119,61.78h-1.801v-7.979c0.709-0.101,1.709-0.243,2.986-0.243
				c1.475,0,2.139,0.243,2.662,0.63c0.475,0.342,0.805,0.926,0.805,1.705c0,0.975-0.709,1.603-1.607,1.9v0.091
				c0.758,0.247,1.137,0.882,1.377,1.947c0.23,1.217,0.422,1.654,0.562,1.948h-1.895c-0.238-0.294-0.377-0.977-0.617-1.948
				c-0.141-0.827-0.621-1.212-1.617-1.212h-0.855V61.78L505.119,61.78z M505.166,57.301h0.859c0.994,0,1.807-0.343,1.807-1.16
				c0-0.738-0.521-1.216-1.666-1.216c-0.473,0-0.801,0.041-1,0.092V57.301z"/>
		</g>
	</g>
	<path fill="#FFFFFF" d="M3.932,120.139h9.482l11.399-58.326H15.33l1.706-8.146h33.126c4.901,0,9.695,0.422,13.423,2.325
		c5.113,2.648,8.844,7.835,8.844,15.768c0,11.117-7.458,21.703-19.708,24.345v0.321c0,0,1.704,2.012,2.555,4.023l5.86,15.029
		c1.169,2.967,2.126,4.873,6.072,4.873c1.279,0,3.087-0.213,3.087-0.213l-1.598,8.255c-0.852,0.108-3.409,0.211-5.007,0.211
		c-8.523,0-10.969-4.651-12.993-9.95l-6.072-16.191c-1.281-3.492-3.094-4.238-6.709-4.238h-9.482l-4.37,21.915h9.16l-1.598,8.255
		H2.333L3.932,120.139z M44.838,89.547c8.837,0,16.725-6.563,16.725-16.412c0-4.338-1.494-7.191-4.051-8.78
		c-2.235-1.485-5.749-2.012-9.584-2.012H35.355L30.03,89.547H44.838z"/>
	<path fill="#FFFFFF" d="M101.515,73.56c14.595,0,24.822,9.526,24.822,23.396c0,18.631-16.511,32.711-33.979,32.711
		c-14.595,0-24.825-9.635-24.825-23.604C67.533,87.639,83.941,73.56,101.515,73.56z M93.207,120.778
		c11.186,0,22.587-10.062,22.587-23.293c0-8.895-6.181-15.027-15.133-15.027c-11.288,0-22.58,10.053-22.58,23.185
		C78.081,114.633,84.257,120.778,93.207,120.778z"/>
	<path fill="#FFFFFF" d="M161.812,73.56c7.779,0,20.667,3.077,18.963,12.601l-1.274,6.137h-9.164l0.742-3.594
		c0.749-4.344-5.216-6.246-10.33-6.246c-11.715,0-22.687,10.582-22.687,22.972c0,9.315,6.067,15.35,16.081,15.35
		c10.759,0,18.431-6.987,18.431-6.987l2.981,7.935c0,0-8.202,7.942-22.369,7.942c-15.764,0-25.673-9.527-25.673-23.496
		C127.512,88.801,142.75,73.56,161.812,73.56z"/>
	<path fill="#FFFFFF" d="M190.095,61.602h-8.941l1.487-7.936h19.384l-8.197,41.812h6.816l13.743-12.706h-6.712l1.488-7.938h24.08
		l-1.599,7.938h-6.285L207.992,98.87v0.209c0,0,1.49,1.16,2.879,4.231l5.859,12.803c1.066,2.542,2.241,4.445,5.966,4.445
		c0.744,0,2.981-0.103,2.981-0.103l-1.493,7.938c-0.744,0.107-2.979,0.211-4.686,0.211c-8.627,0-10.226-4.236-12.571-9.523
		l-5.963-13.231c-0.855-1.906-1.921-2.539-4.368-2.539h-4.259l-5.113,25.084h-10.23L190.095,61.602z"/>
	<path fill="#FFFFFF" d="M256.041,73.56c13.845,0,20.451,8.258,20.451,19.795c0,4.349-1.705,9.213-1.705,9.213H235.59
		c0,0-0.429,1.8-0.429,3.804c0,8.264,5.43,14.406,15.342,14.406c9.266,0,17.256-6.145,17.256-6.145l2.873,8.048
		c0,0-9.053,6.985-20.667,6.985c-15.762,0-25.347-9.527-25.347-22.869C224.617,89.02,237.93,73.56,256.041,73.56z M265.843,96.004
		c0,0,0.32-1.797,0.32-3.496c0-7.195-4.267-10.793-10.441-10.793c-7.883,0-15.343,5.188-18.642,14.289H265.843z"/>
	<path fill="#FFFFFF" d="M279.692,107.758l4.899-24.986h-9.051l1.599-7.938h9.266l2.873-14.712h10.019l-2.879,14.712h12.994
		l-1.595,7.938h-13.002l-4.787,24.986c-0.321,1.479-0.428,3.066-0.428,4.119c0,7.31,4.899,8.475,8.948,8.475
		c1.699,0,2.98-0.213,2.98-0.213l-1.703,8.466c0,0-1.703,0.209-3.41,0.209c-8.312,0-17.363-2.959-17.363-15.663
		C279.054,111.568,279.265,109.766,279.692,107.758z"/>
	<path fill="#FFFFFF" d="M304.41,120.139h9.377l11.396-58.326h-9.479l1.705-8.146H369.5l-3.521,17.673h-9.267l1.703-8.575h-22.795
		l-4.791,24.769h26.512l-1.813,8.68h-26.516l-4.574,23.928h10.117l-1.601,8.255H302.81L304.41,120.139z"/>
	<path fill="#FFFFFF" d="M362.632,108.812l5.006-26.04h-8.951l1.602-7.938h19.279l-6.178,31.86
		c-0.535,2.222-0.854,4.449-0.854,6.138c0,4.66,2.024,7.52,8.098,7.52c10.758,0,19.492-11.008,21.408-21.173l3.197-16.407h-8.945
		l1.596-7.938h19.277l-7.449,37.896c-0.219,1.161-0.326,2.328-0.326,3.278c0,3.807,2.133,4.656,4.799,4.656
		c1.596,0,2.553-0.211,2.553-0.211l-1.596,7.938c0,0-2.344,0.211-4.9,0.211c-7.242,0-11.502-3.705-10.762-11.744h-0.211
		c-3.514,5.503-10.977,12.806-22.26,12.806c-8.201,0-15.133-4.024-15.133-14.08C361.882,113.577,362.097,111.247,362.632,108.812z"
		/>
	<path fill="#FFFFFF" d="M448.57,73.56c13.846,0,20.449,8.258,20.449,19.795c0,4.349-1.707,9.213-1.707,9.213h-39.189
		c0,0-0.432,1.8-0.432,3.804c0,8.264,5.434,14.406,15.336,14.406c9.268,0,17.262-6.145,17.262-6.145l2.875,8.048
		c0,0-9.059,6.985-20.67,6.985c-15.766,0-25.354-9.527-25.354-22.869C417.142,89.02,430.458,73.56,448.57,73.56z M458.367,96.004
		c0,0,0.324-1.797,0.324-3.496c0-7.195-4.266-10.793-10.445-10.793c-7.879,0-15.336,5.188-18.641,14.289H458.367z"/>
	<path fill="#FFFFFF" d="M470.388,113.151l10.117-51.549h-9.049l1.596-7.936h19.281L481.037,112.2
		c-0.318,1.272-0.531,2.754-0.531,3.6c0,3.914,2.133,4.439,4.898,4.439c1.602,0,2.561-0.207,2.561-0.207l-1.707,8.471
		c0,0-2.129,0.207-4.258,0.207c-5.221,0-12.141-1.27-12.141-10.688C469.859,116.641,470.068,114.954,470.388,113.151z"/>
	<g>
		<path fill="#FFFFFF" d="M499.425,26.321c-17.396-8.6-37.051-13.454-57.863-13.454c-4.158,0-8.268,0.206-12.326,0.586
			c-10.398-7.378-21.135-11.739-34.902-11.786c5.791,4.465,8.779,9.896,12.721,16.049c-0.758,3.87-1.166,7.863-1.166,11.951
			c0,4.094,0.408,8.093,1.168,11.969c-3.939,6.15-6.932,11.564-12.723,16.031c13.762-0.045,24.492-4.414,34.889-11.787
			c4.062,0.381,8.178,0.588,12.34,0.588c20.812,0,40.469-4.855,57.863-13.455c4.803-1.42,9.662-2.55,14.908-3.346
			C509.087,28.872,504.228,27.742,499.425,26.321z M450.333,37.667c-4.418,0-8-3.582-8-8s3.582-8,8-8c4.42,0,8,3.582,8,8
			S454.753,37.667,450.333,37.667z"/>
	</g>
	<path fill="#FFFFFF" d="M401.521,33.329c-0.066-1.214-0.113-2.433-0.113-3.662s0.047-2.448,0.113-3.661
		c0.139-2.483,0.404-4.935,0.812-7.339c-2.502,0.813-4.969,1.702-7.404,2.651c-2.207,0.859-4.383,1.779-6.533,2.748
		c-1.277,1.484-2.062,3.444-2.062,5.601s0.785,4.117,2.062,5.603c2.148,0.967,4.324,1.888,6.533,2.747
		c2.436,0.948,4.902,1.838,7.404,2.65C401.925,38.262,401.66,35.812,401.521,33.329z"/>
	<path fill="#FFFFFF" d="M376.333,23.667l-370,6l370,6c3.313,0,6-2.687,6-6S379.647,23.667,376.333,23.667z"/>
</g>
</svg>
